# xmcd
#
# Track frame offsets: 
#        150
#        14881
#        31112
#        45426
#        56924
#        75123
#        89099
#        104007
#        121804
#        139407
#        152436
#        168631
#        187919
#        203871
#        219602
#
# Disc length: 3175 seconds
#
# Revision: 3
# Processed by: cddbd v1.5.2PL0 Copyright (c) Steve Scherf et al.
# Submitted via: ExactAudioCopy v0.99pb5
#
DISCID=ce0c650f
DTITLE=Various Artist - Classic Country - TL 626-30 - 90s Stars - CD 2
DYEAR=2002
DGENRE=Country
TTITLE0=Mavericks - O what a thrill
TTITLE1=Patty Loveless - Blame it on your heart
TTITLE2=Brooks and Dunn - Husbands and wives
TTITLE3=Kevin Sharp - If you love somebody
TTITLE4=Billy Ray Cyrus - In the heart of a woman
TTITLE5=Mark Chesnutt - Brother Jukebox
TTITLE6=Neal McCoy - Then you can tell me goodbye
TTITLE7=Wynonna - No one else on earth
TTITLE8=Collin Raye - Love me
TTITLE9=Reba McEntire - Wrong night
TTITLE10=Wade Hayes - The day that she left Tulsa (in a chevy)
TTITLE11=Vince Gill - When I call your name
TTITLE12=Billy Dean - Only here for a little while
TTITLE13=Tanya Tucker - Soon
TTITLE14=Little Texas - God blessed Texas
EXTD=
EXTT0=
EXTT1=
EXTT2=
EXTT3=
EXTT4=
EXTT5=
EXTT6=
EXTT7=
EXTT8=
EXTT9=
EXTT10=
EXTT11=
EXTT12=
EXTT13=
EXTT14=
PLAYORDER=
